# Blender 3.5.0
# www.blender.org
mtllib box1Test.mtl
o Cube
v 0.860491 2.000000 -0.860491
v 1.000000 0.000000 -1.000000
v 0.860491 2.000000 0.860491
v 1.000000 0.000000 1.000000
v -0.860491 2.000000 -0.860491
v -1.000000 0.000000 -1.000000
v -0.860491 2.000000 0.860491
v -1.000000 0.000000 1.000000
v 1.000000 2.000000 1.000000
v -1.000000 2.000000 1.000000
v 1.000000 2.000000 -1.000000
v -1.000000 2.000000 -1.000000
v 0.860491 0.140000 0.860491
v -0.860491 0.140000 0.860491
v 0.860491 0.140000 -0.860491
v -0.860491 0.140000 -0.860491
v -2.000000 2.694821 1.000000
v -2.000000 2.694821 -1.000000
v -1.860491 2.694821 0.860491
v -1.860491 2.694821 -0.860491
v -1.000000 2.691028 -2.000000
v 1.000000 2.691028 -2.000000
v -0.860491 2.691028 -1.860491
v 0.860491 2.691028 -1.860491
v 1.000000 2.691539 2.000000
v -1.000000 2.691539 2.000000
v 0.860491 2.691539 1.860491
v -0.860491 2.691539 1.860491
v 2.000000 2.701384 -1.000000
v 2.000000 2.701384 1.000000
v 1.860491 2.701384 -0.860491
v 1.860491 2.701384 0.860491
vn 1.0000 -0.0000 -0.0000
vn -0.0000 -0.0000 1.0000
vn -1.0000 -0.0000 -0.0000
vn -0.0000 -1.0000 -0.0000
vn -0.0000 -0.0000 -1.0000
vn -0.0000 0.8225 -0.5688
vn -0.5742 0.8187 -0.0000
vn 0.4956 0.7133 -0.4956
vn -0.0000 -0.8227 -0.5685
vn -0.0000 1.0000 -0.0000
vn 0.4956 0.7133 0.4956
vn -0.5706 -0.8212 -0.0000
vn 0.5706 0.8212 -0.0000
vn -0.4942 0.7152 0.4942
vn -0.0000 0.8227 0.5685
vn 0.4942 0.7152 0.4942
vn -0.0000 -0.8225 0.5688
vn -0.4944 0.7149 -0.4944
vn 0.4944 0.7149 -0.4944
vn 0.5742 -0.8187 -0.0000
vn -0.4980 0.7100 -0.4980
vn -0.4980 0.7100 0.4980
vt 0.642439 0.517439
vt 0.375000 0.500000
vt 0.642439 0.732561
vt 0.375000 0.750000
vt 0.857561 0.517439
vt 0.125000 0.500000
vt 0.375000 0.250000
vt 0.857561 0.732561
vt 0.375000 1.000000
vt 0.375000 0.000000
vt 0.125000 0.750000
vt 0.625000 0.750000
vt 0.625000 0.000000
vt 0.625000 1.000000
vt 0.875000 0.750000
vt 0.625000 0.500000
vt 0.625000 0.250000
vt 0.875000 0.500000
vt 0.642439 0.732561
vt 0.857561 0.732561
vt 0.642439 0.517439
vt 0.857561 0.517439
vt 0.875000 0.750000
vt 0.625000 0.000000
vt 0.875000 0.500000
vt 0.625000 0.250000
vt 0.857561 0.732561
vt 0.857561 0.517439
vt 0.625000 0.250000
vt 0.875000 0.500000
vt 0.625000 0.500000
vt 0.857561 0.517439
vt 0.642439 0.517439
vt 0.625000 0.750000
vt 0.625000 1.000000
vt 0.875000 0.750000
vt 0.642439 0.732561
vt 0.857561 0.732561
vt 0.625000 0.500000
vt 0.625000 0.750000
vt 0.642439 0.517439
vt 0.642439 0.732561
s 0
usemtl Material
f 5/5/1 7/8/1 14/20/1 16/22/1
f 4/4/2 9/12/2 10/14/2 8/9/2
f 8/10/3 10/13/3 12/17/3 6/7/3
f 6/6/4 2/2/4 4/4/4 8/11/4
f 2/2/1 11/16/1 9/12/1 4/4/1
f 6/7/5 12/17/5 11/16/5 2/2/5
f 3/3/6 7/8/6 28/38/6 27/37/6
f 1/1/7 3/3/7 32/42/7 31/41/7
f 5/5/8 12/18/8 18/25/8 20/28/8
f 11/16/9 12/17/9 21/29/9 22/31/9
f 15/21/10 16/22/10 14/20/10 13/19/10
f 7/8/5 3/3/5 13/19/5 14/20/5
f 1/1/2 5/5/2 16/22/2 15/21/2
f 3/3/3 1/1/3 15/21/3 13/19/3
f 19/27/10 20/28/10 18/25/10 17/23/10
f 10/15/11 7/8/11 19/27/11 17/23/11
f 12/17/12 10/13/12 17/24/12 18/26/12
f 7/8/13 5/5/13 20/28/13 19/27/13
f 23/32/10 24/33/10 22/31/10 21/30/10
f 12/18/14 5/5/14 23/32/14 21/30/14
f 5/5/15 1/1/15 24/33/15 23/32/15
f 1/1/16 11/16/16 22/31/16 24/33/16
f 27/37/10 28/38/10 26/36/10 25/34/10
f 10/14/17 9/12/17 25/34/17 26/35/17
f 7/8/18 10/15/18 26/36/18 28/38/18
f 9/12/19 3/3/19 27/37/19 25/34/19
f 31/41/10 32/42/10 30/40/10 29/39/10
f 9/12/20 11/16/20 29/39/20 30/40/20
f 11/16/21 1/1/21 31/41/21 29/39/21
f 3/3/22 9/12/22 30/40/22 32/42/22
