# Blender 3.5.0
# www.blender.org
mtllib Hedge.mtl
o Cube
v 1.000000 1.877141 -2.966617
v 1.000000 0.000000 -3.147487
v 0.950936 2.025367 2.699501
v 1.000000 0.000000 3.085802
v -1.095477 2.000000 -2.782226
v -1.000000 0.000000 -3.175802
v -0.888841 1.891271 3.016666
v -1.000000 0.000000 3.069493
v -1.000000 0.000000 0.000000
v 0.000000 0.000000 -3.246947
v 1.153574 1.001575 -2.952253
v -1.000000 1.000000 2.916922
v 1.153574 0.889742 2.882191
v -0.925182 0.854302 -3.382332
v 0.020880 2.006928 3.048499
v 0.962201 1.820579 0.209511
v 0.000000 0.000000 3.207145
v -0.966360 2.068210 -0.038739
v -0.135170 2.128906 -3.135685
v 1.000000 0.000000 0.000000
v -0.035190 0.977414 -3.605665
v 1.000000 1.173263 0.118134
v 0.000000 0.000000 0.000000
v -1.152176 1.000000 0.000000
v -0.129061 1.000000 3.487903
v -0.058095 2.100693 -0.120533
v -1.000000 0.000000 1.500000
v -0.500000 0.000000 -3.322641
v 1.000000 0.500000 -3.355928
v -1.000000 1.500000 3.207145
v 1.000000 0.566942 2.960221
v -1.039378 0.488187 -3.245420
v -0.500000 2.000000 3.207145
v 1.000000 1.854302 1.496062
v 0.500000 0.000000 3.207145
v -1.000000 2.000000 -1.500000
v 0.354300 2.172521 -3.025315
v 1.000000 0.000000 -1.500000
v -1.000000 0.000000 -1.500000
v 0.500000 0.000000 -3.204881
v 1.000000 1.466923 -3.246917
v -1.009078 0.573025 2.832415
v 1.000000 1.500000 3.207145
v -1.090569 1.370053 -3.170517
v 0.478019 1.856797 3.243822
v 0.988203 1.978018 -1.511325
v -0.500000 0.000000 3.178998
v -0.812111 2.000000 1.500000
v -0.607768 2.193413 -3.140779
v 1.000000 0.000000 1.500000
v 0.500000 1.000000 -3.493894
v -0.637823 0.964560 -3.493894
v 0.000000 0.500000 -3.493894
v -0.074818 1.551191 -3.493894
v 1.153574 0.925182 1.196790
v 1.153574 0.901555 -1.720516
v 1.000000 0.606320 -0.208703
v 1.000000 1.500000 0.000000
v 0.000000 0.000000 1.500000
v 0.000000 0.000000 -1.500000
v -0.500000 0.000000 0.000000
v 0.500000 0.000000 0.000000
v -1.000000 1.000000 -1.500000
v -1.000000 1.000000 1.170231
v -1.211220 0.542973 -0.060355
v -1.246867 1.500000 0.000000
v -0.500000 1.000000 3.414290
v 0.370939 1.000000 3.487903
v 0.000000 0.500000 3.414290
v 0.000000 1.500000 3.414290
v 0.000000 2.000000 1.500000
v 0.000000 2.190628 -1.500000
v 0.372265 1.997404 -0.331292
v -0.500000 2.000000 0.000000
v -0.500000 2.000000 -1.500000
v 0.488203 1.978018 -1.511325
v 0.500000 2.000000 1.500000
v 0.500000 1.500000 3.414290
v 0.500000 0.500000 3.414290
v -0.500000 0.500000 3.383810
v -1.000000 1.500000 1.500000
v -0.974032 0.469397 1.787199
v -1.000000 0.500000 -1.500000
v 0.500000 0.000000 -1.500000
v -0.500000 0.000000 -1.500000
v -0.500000 0.000000 1.500000
v 1.000000 1.500000 -1.500000
v 1.000000 0.500000 -1.500000
v 1.000000 0.472435 1.720516
v -0.500000 1.500000 -3.493894
v -0.550367 0.389136 -3.549775
v 0.653574 0.535440 -3.493894
v 0.385804 1.405493 -3.493894
v 1.000000 1.421244 1.476373
v 0.500000 0.000000 1.500000
v -1.057783 1.313985 -1.768896
v -0.500000 1.500000 3.414290
v -0.500000 2.000000 1.500000
vn -0.1610 0.9865 0.0294
vn -0.4135 0.4135 0.8112
vn -0.9987 0.0161 0.0481
vn -0.0000 -1.0000 -0.0000
vn 0.9983 0.0571 0.0118
vn 0.2913 0.5190 -0.8036
vn 0.5391 0.3247 -0.7771
vn -0.0421 -0.0579 -0.9974
vn 0.0122 0.4895 -0.8719
vn 0.9317 -0.3633 0.0073
vn 0.9842 -0.1635 0.0680
vn 0.9982 0.0593 0.0110
vn -0.9916 0.1283 -0.0153
vn -0.9858 0.1062 0.1298
vn -0.9065 0.4021 0.1287
vn -0.7211 -0.0783 0.6884
vn -0.0000 -0.1457 0.9893
vn -0.0903 0.5252 0.8462
vn 0.1467 0.9883 0.0410
vn 0.3353 0.9408 0.0487
vn 0.0713 0.9972 -0.0238
vn -0.2926 0.9559 0.0240
vn -0.1287 0.9905 0.0494
vn -0.1648 0.9834 0.0765
vn 0.1339 0.9895 0.0536
vn 0.2486 0.9684 0.0203
vn 0.1676 0.9855 0.0272
vn -0.0292 0.9995 -0.0102
vn 0.2958 0.9549 -0.0268
vn 0.1152 0.9931 0.0220
vn -0.0000 0.1457 0.9893
vn 0.5157 -0.1783 0.8380
vn 0.4383 0.5697 0.6952
vn -0.0000 -0.3827 0.9239
vn 0.5010 -0.0660 0.8629
vn 0.6366 -0.0148 0.7711
vn -0.5467 0.0205 0.8370
vn -0.0541 -0.3803 0.9233
vn -0.1178 -0.1178 0.9860
vn -0.9791 -0.1410 0.1463
vn -1.0000 -0.0000 -0.0000
vn -0.9488 0.3158 -0.0119
vn -0.9789 -0.1937 0.0651
vn -0.9998 0.0169 -0.0141
vn -0.9996 -0.0241 -0.0117
vn -0.9992 -0.0390 0.0116
vn -0.9771 -0.2018 -0.0673
vn -0.9900 0.0689 -0.1234
vn 0.9866 0.1602 0.0323
vn 0.9606 0.2778 0.0062
vn 0.9999 0.0123 0.0032
vn 1.0000 -0.0000 -0.0000
vn 0.9473 -0.3201 -0.0104
vn 0.9843 -0.1619 -0.0708
vn -0.1142 0.1096 -0.9874
vn -0.4733 0.1621 -0.8659
vn -0.5734 0.3627 -0.7346
vn 0.1579 -0.4576 -0.8750
vn -0.4190 -0.3291 -0.8462
vn -0.4706 -0.0624 -0.8801
vn 0.1833 -0.4477 -0.8752
vn 0.0465 -0.4646 -0.8843
vn 0.0979 -0.0979 -0.9904
vn 0.5286 -0.1217 -0.8401
vn 0.1267 0.1321 -0.9831
vn 0.1537 0.5251 -0.8370
vn 0.9631 0.2692 -0.0034
vn 0.9812 0.1899 -0.0347
vn 0.9985 0.0540 -0.0128
vn -0.9656 -0.2601 -0.0053
vn -0.9732 -0.2119 -0.0895
vn -0.9601 0.2714 -0.0676
vn -0.5604 -0.2308 0.7954
vn -0.0839 0.0839 0.9929
vn 0.1308 0.4882 0.8629
vn -0.0071 1.0000 -0.0021
vn -0.1019 0.9942 0.0340
vn 0.0864 0.9961 0.0180
vt 0.625000 0.500000
vt 0.375000 0.500000
vt 0.625000 0.750000
vt 0.375000 0.750000
vt 0.875000 0.500000
vt 0.625000 0.250000
vt 0.125000 0.500000
vt 0.375000 0.250000
vt 0.875000 0.750000
vt 0.625000 1.000000
vt 0.625000 0.000000
vt 0.375000 1.000000
vt 0.375000 0.000000
vt 0.125000 0.750000
vt 0.375000 0.125000
vt 0.125000 0.625000
vt 0.250000 0.500000
vt 0.375000 0.375000
vt 0.500000 0.500000
vt 0.500000 0.000000
vt 0.500000 1.000000
vt 0.500000 0.750000
vt 0.500000 0.250000
vt 0.625000 0.875000
vt 0.750000 0.750000
vt 0.625000 0.625000
vt 0.375000 0.875000
vt 0.250000 0.750000
vt 0.625000 0.125000
vt 0.875000 0.625000
vt 0.750000 0.500000
vt 0.625000 0.375000
vt 0.375000 0.625000
vt 0.500000 0.375000
vt 0.500000 0.625000
vt 0.250000 0.625000
vt 0.500000 0.125000
vt 0.500000 0.875000
vt 0.750000 0.625000
vt 0.375000 0.062500
vt 0.125000 0.687500
vt 0.187500 0.500000
vt 0.375000 0.312500
vt 0.437500 0.500000
vt 0.562500 0.000000
vt 0.562500 1.000000
vt 0.437500 0.750000
vt 0.437500 0.250000
vt 0.625000 0.937500
vt 0.812500 0.750000
vt 0.625000 0.687500
vt 0.375000 0.812500
vt 0.312500 0.750000
vt 0.875000 0.562500
vt 0.625000 0.187500
vt 0.687500 0.500000
vt 0.625000 0.437500
vt 0.375000 0.562500
vt 0.375000 0.187500
vt 0.125000 0.562500
vt 0.312500 0.500000
vt 0.375000 0.437500
vt 0.562500 0.500000
vt 0.437500 1.000000
vt 0.437500 0.000000
vt 0.562500 0.750000
vt 0.562500 0.250000
vt 0.687500 0.750000
vt 0.625000 0.812500
vt 0.625000 0.562500
vt 0.375000 0.937500
vt 0.187500 0.750000
vt 0.625000 0.062500
vt 0.875000 0.687500
vt 0.812500 0.500000
vt 0.625000 0.312500
vt 0.375000 0.687500
vt 0.500000 0.437500
vt 0.500000 0.312500
vt 0.437500 0.375000
vt 0.562500 0.375000
vt 0.500000 0.687500
vt 0.500000 0.562500
vt 0.437500 0.625000
vt 0.562500 0.625000
vt 0.250000 0.687500
vt 0.250000 0.562500
vt 0.187500 0.625000
vt 0.312500 0.625000
vt 0.500000 0.187500
vt 0.500000 0.062500
vt 0.437500 0.125000
vt 0.562500 0.125000
vt 0.500000 0.937500
vt 0.500000 0.812500
vt 0.437500 0.875000
vt 0.562500 0.875000
vt 0.750000 0.687500
vt 0.750000 0.562500
vt 0.687500 0.625000
vt 0.812500 0.625000
vt 0.812500 0.562500
vt 0.687500 0.562500
vt 0.687500 0.687500
vt 0.562500 0.812500
vt 0.437500 0.812500
vt 0.437500 0.937500
vt 0.562500 0.062500
vt 0.437500 0.062500
vt 0.437500 0.187500
vt 0.312500 0.562500
vt 0.187500 0.562500
vt 0.187500 0.687500
vt 0.562500 0.562500
vt 0.437500 0.562500
vt 0.437500 0.687500
vt 0.562500 0.312500
vt 0.437500 0.312500
vt 0.437500 0.437500
vt 0.562500 0.437500
vt 0.562500 0.687500
vt 0.312500 0.687500
vt 0.562500 0.187500
vt 0.562500 0.937500
vt 0.812500 0.687500
s 0
usemtl Material
f 98/125/1 48/74/1 7/9/1 33/50/1
f 97/124/2 33/49/2 7/10/2 30/46/2
f 96/123/3 36/55/3 5/6/3 44/67/3
f 95/122/4 50/77/4 4/4/4 35/53/4
f 94/121/5 34/51/5 3/3/5 43/66/5
f 93/120/6 37/57/6 1/1/6 41/63/6
f 92/119/7 51/78/7 11/19/7 29/44/7
f 91/118/8 52/79/8 21/34/8 53/80/8
f 90/117/9 49/76/9 19/32/9 54/81/9
f 89/116/10 55/82/10 13/22/10 31/47/10
f 88/115/11 56/83/11 22/35/11 57/84/11
f 87/114/12 46/70/12 16/26/12 58/85/12
f 86/113/4 59/86/4 17/28/4 47/72/4
f 85/112/4 60/87/4 23/36/4 61/88/4
f 84/111/4 38/58/4 20/33/4 62/89/4
f 83/110/13 63/90/13 14/23/13 32/48/13
f 82/109/14 64/91/14 24/37/14 65/92/14
f 81/108/15 48/73/15 18/29/15 66/93/15
f 80/107/16 67/94/16 12/21/16 42/64/16
f 79/106/17 68/95/17 25/38/17 69/96/17
f 78/105/18 45/69/18 15/24/18 70/97/18
f 77/104/19 71/98/19 15/25/19 45/68/19
f 76/103/20 72/99/20 26/39/20 73/100/20
f 75/102/21 36/54/21 18/30/21 74/101/21
f 72/99/22 75/102/22 74/101/22 26/39/22
f 19/31/23 49/75/23 75/102/23 72/99/23
f 49/75/24 5/5/24 36/54/24 75/102/24
f 46/70/25 76/103/25 73/100/25 16/26/25
f 1/1/26 37/56/26 76/103/26 46/70/26
f 37/56/27 19/31/27 72/99/27 76/103/27
f 34/51/28 77/104/28 45/68/28 3/3/28
f 16/26/29 73/100/29 77/104/29 34/51/29
f 73/100/30 26/39/30 71/98/30 77/104/30
f 68/95/31 78/105/31 70/97/31 25/38/31
f 13/22/32 43/66/32 78/105/32 68/95/32
f 43/66/33 3/3/33 45/69/33 78/105/33
f 35/52/34 79/106/34 69/96/34 17/27/34
f 4/4/35 31/47/35 79/106/35 35/52/35
f 31/47/36 13/22/36 68/95/36 79/106/36
f 47/71/37 80/107/37 42/64/37 8/12/37
f 17/27/38 69/96/38 80/107/38 47/71/38
f 69/96/39 25/38/39 67/94/39 80/107/39
f 64/91/40 81/108/40 66/93/40 24/37/40
f 12/20/41 30/45/41 81/108/41 64/91/41
f 30/45/42 7/11/42 48/73/42 81/108/42
f 27/40/43 82/109/43 65/92/43 9/15/43
f 8/13/44 42/65/44 82/109/44 27/40/44
f 42/65/45 12/20/45 64/91/45 82/109/45
f 39/59/46 83/110/46 32/48/46 6/8/46
f 9/15/47 65/92/47 83/110/47 39/59/47
f 65/92/48 24/37/48 63/90/48 83/110/48
f 60/87/4 84/111/4 62/89/4 23/36/4
f 10/17/4 40/61/4 84/111/4 60/87/4
f 40/61/4 2/2/4 38/58/4 84/111/4
f 39/60/4 85/112/4 61/88/4 9/16/4
f 6/7/4 28/42/4 85/112/4 39/60/4
f 28/42/4 10/17/4 60/87/4 85/112/4
f 27/41/4 86/113/4 47/72/4 8/14/4
f 9/16/4 61/88/4 86/113/4 27/41/4
f 61/88/4 23/36/4 59/86/4 86/113/4
f 56/83/49 87/114/49 58/85/49 22/35/49
f 11/19/50 41/63/50 87/114/50 56/83/50
f 41/63/51 1/1/51 46/70/51 87/114/51
f 38/58/52 88/115/52 57/84/52 20/33/52
f 2/2/52 29/44/52 88/115/52 38/58/52
f 29/44/53 11/19/53 56/83/53 88/115/53
f 50/77/52 89/116/52 31/47/52 4/4/52
f 20/33/52 57/84/52 89/116/52 50/77/52
f 57/84/54 22/35/54 55/82/54 89/116/54
f 52/79/55 90/117/55 54/81/55 21/34/55
f 14/23/56 44/67/56 90/117/56 52/79/56
f 44/67/57 5/6/57 49/76/57 90/117/57
f 28/43/58 91/118/58 53/80/58 10/18/58
f 6/8/59 32/48/59 91/118/59 28/43/59
f 32/48/60 14/23/60 52/79/60 91/118/60
f 40/62/61 92/119/61 29/44/61 2/2/61
f 10/18/62 53/80/62 92/119/62 40/62/62
f 53/80/63 21/34/63 51/78/63 92/119/63
f 51/78/64 93/120/64 41/63/64 11/19/64
f 21/34/65 54/81/65 93/120/65 51/78/65
f 54/81/66 19/32/66 37/57/66 93/120/66
f 55/82/67 94/121/67 43/66/67 13/22/67
f 22/35/68 58/85/68 94/121/68 55/82/68
f 58/85/69 16/26/69 34/51/69 94/121/69
f 59/86/4 95/122/4 35/53/4 17/28/4
f 23/36/4 62/89/4 95/122/4 59/86/4
f 62/89/4 20/33/4 50/77/4 95/122/4
f 63/90/70 96/123/70 44/67/70 14/23/70
f 24/37/71 66/93/71 96/123/71 63/90/71
f 66/93/72 18/29/72 36/55/72 96/123/72
f 67/94/73 97/124/73 30/46/73 12/21/73
f 25/38/74 70/97/74 97/124/74 67/94/74
f 70/97/75 15/24/75 33/49/75 97/124/75
f 71/98/76 98/125/76 33/50/76 15/25/76
f 26/39/77 74/101/77 98/125/77 71/98/77
f 74/101/78 18/30/78 48/74/78 98/125/78
