# Blender 3.5.0
# www.blender.org
mtllib canOfTrash.mtl
o Cylinder
v 0.000000 0.000000 -0.785046
v 0.000000 2.000000 -1.000000
v 0.153155 0.000000 -0.769962
v 0.195090 2.000000 -0.980785
v 0.300424 0.000000 -0.725288
v 0.382683 2.000000 -0.923880
v 0.436148 0.000000 -0.652742
v 0.555570 2.000000 -0.831470
v 0.555111 0.000000 -0.555111
v 0.707107 2.000000 -0.707107
v 0.652742 0.000000 -0.436148
v 0.831470 2.000000 -0.555570
v 0.725288 0.000000 -0.300424
v 0.923880 2.000000 -0.382683
v 0.769962 0.000000 -0.153155
v 0.980785 2.000000 -0.195090
v 0.785046 0.000000 -0.000000
v 1.000000 2.000000 0.000000
v 0.769962 0.000000 0.153155
v 0.980785 2.000000 0.195090
v 0.725288 0.000000 0.300424
v 0.923880 2.000000 0.382683
v 0.652742 0.000000 0.436148
v 0.831470 2.000000 0.555570
v 0.555111 0.000000 0.555111
v 0.707107 2.000000 0.707107
v 0.436148 0.000000 0.652742
v 0.555570 2.000000 0.831470
v 0.300424 0.000000 0.725288
v 0.382683 2.000000 0.923880
v 0.153155 0.000000 0.769962
v 0.195090 2.000000 0.980785
v 0.000000 0.000000 0.785046
v 0.000000 2.000000 1.000000
v -0.153155 0.000000 0.769962
v -0.195090 2.000000 0.980785
v -0.300424 0.000000 0.725288
v -0.382683 2.000000 0.923880
v -0.436148 0.000000 0.652742
v -0.555570 2.000000 0.831470
v -0.555111 0.000000 0.555111
v -0.707107 2.000000 0.707107
v -0.652742 0.000000 0.436148
v -0.831470 2.000000 0.555570
v -0.725288 0.000000 0.300424
v -0.923880 2.000000 0.382683
v -0.769962 0.000000 0.153155
v -0.980785 2.000000 0.195090
v -0.785046 0.000000 -0.000000
v -1.000000 2.000000 0.000000
v -0.769962 0.000000 -0.153155
v -0.980785 2.000000 -0.195090
v -0.725288 0.000000 -0.300424
v -0.923880 2.000000 -0.382683
v -0.652742 0.000000 -0.436148
v -0.831470 2.000000 -0.555570
v -0.555111 0.000000 -0.555111
v -0.707107 2.000000 -0.707107
v -0.436148 0.000000 -0.652742
v -0.555570 2.000000 -0.831470
v -0.300424 0.000000 -0.725288
v -0.382683 2.000000 -0.923880
v -0.153155 0.000000 -0.769962
v -0.195090 2.000000 -0.980785
vn 0.0975 -0.1064 -0.9895
vn 0.2886 -0.1064 -0.9515
vn 0.4687 -0.1064 -0.8769
vn 0.6308 -0.1064 -0.7686
vn 0.7686 -0.1064 -0.6308
vn 0.8769 -0.1064 -0.4687
vn 0.9515 -0.1064 -0.2886
vn 0.9895 -0.1064 -0.0975
vn 0.9895 -0.1064 0.0975
vn 0.9515 -0.1064 0.2886
vn 0.8769 -0.1064 0.4687
vn 0.7686 -0.1064 0.6308
vn 0.6308 -0.1064 0.7686
vn 0.4687 -0.1064 0.8769
vn 0.2886 -0.1064 0.9515
vn 0.0975 -0.1064 0.9895
vn -0.0975 -0.1064 0.9895
vn -0.2886 -0.1064 0.9515
vn -0.4687 -0.1064 0.8769
vn -0.6308 -0.1064 0.7686
vn -0.7686 -0.1064 0.6308
vn -0.8769 -0.1064 0.4687
vn -0.9515 -0.1064 0.2886
vn -0.9895 -0.1064 0.0975
vn -0.9895 -0.1064 -0.0975
vn -0.9515 -0.1064 -0.2886
vn -0.8769 -0.1064 -0.4687
vn -0.7686 -0.1064 -0.6308
vn -0.6308 -0.1064 -0.7686
vn -0.4687 -0.1064 -0.8769
vn -0.0000 1.0000 -0.0000
vn -0.2886 -0.1064 -0.9515
vn -0.0975 -0.1064 -0.9895
vn -0.0000 -1.0000 -0.0000
vt 1.000000 0.500000
vt 0.000000 0.500000
vt 0.750000 0.490000
vt 1.000000 1.000000
vt 0.250000 0.490000
vt 0.000000 1.000000
vt 0.968750 0.500000
vt 0.796822 0.485388
vt 0.968750 1.000000
vt 0.296822 0.485388
vt 0.937500 0.500000
vt 0.841844 0.471731
vt 0.937500 1.000000
vt 0.341844 0.471731
vt 0.906250 0.500000
vt 0.883337 0.449553
vt 0.906250 1.000000
vt 0.383337 0.449553
vt 0.875000 0.500000
vt 0.919706 0.419706
vt 0.875000 1.000000
vt 0.419706 0.419706
vt 0.843750 0.500000
vt 0.949553 0.383337
vt 0.843750 1.000000
vt 0.449553 0.383337
vt 0.812500 0.500000
vt 0.971731 0.341844
vt 0.812500 1.000000
vt 0.471731 0.341844
vt 0.781250 0.500000
vt 0.985388 0.296822
vt 0.781250 1.000000
vt 0.485388 0.296822
vt 0.750000 0.500000
vt 0.990000 0.250000
vt 0.750000 1.000000
vt 0.490000 0.250000
vt 0.718750 0.500000
vt 0.985388 0.203178
vt 0.718750 1.000000
vt 0.485388 0.203178
vt 0.687500 0.500000
vt 0.971731 0.158156
vt 0.687500 1.000000
vt 0.471731 0.158156
vt 0.656250 0.500000
vt 0.949553 0.116663
vt 0.656250 1.000000
vt 0.449553 0.116663
vt 0.625000 0.500000
vt 0.919706 0.080294
vt 0.625000 1.000000
vt 0.419706 0.080294
vt 0.593750 0.500000
vt 0.883337 0.050447
vt 0.593750 1.000000
vt 0.383337 0.050447
vt 0.562500 0.500000
vt 0.841844 0.028269
vt 0.562500 1.000000
vt 0.341844 0.028269
vt 0.531250 0.500000
vt 0.796822 0.014612
vt 0.531250 1.000000
vt 0.296822 0.014612
vt 0.500000 0.500000
vt 0.750000 0.010000
vt 0.500000 1.000000
vt 0.250000 0.010000
vt 0.468750 0.500000
vt 0.703178 0.014612
vt 0.468750 1.000000
vt 0.203178 0.014612
vt 0.437500 0.500000
vt 0.658156 0.028269
vt 0.437500 1.000000
vt 0.158156 0.028269
vt 0.406250 0.500000
vt 0.616663 0.050447
vt 0.406250 1.000000
vt 0.116663 0.050447
vt 0.375000 0.500000
vt 0.580294 0.080294
vt 0.375000 1.000000
vt 0.080294 0.080294
vt 0.343750 0.500000
vt 0.550447 0.116663
vt 0.343750 1.000000
vt 0.050447 0.116663
vt 0.312500 0.500000
vt 0.528269 0.158156
vt 0.312500 1.000000
vt 0.028269 0.158156
vt 0.281250 0.500000
vt 0.514612 0.203178
vt 0.281250 1.000000
vt 0.014612 0.203178
vt 0.250000 0.500000
vt 0.510000 0.250000
vt 0.250000 1.000000
vt 0.010000 0.250000
vt 0.218750 0.500000
vt 0.514612 0.296822
vt 0.218750 1.000000
vt 0.014612 0.296822
vt 0.187500 0.500000
vt 0.528269 0.341844
vt 0.187500 1.000000
vt 0.028269 0.341844
vt 0.156250 0.500000
vt 0.550447 0.383337
vt 0.156250 1.000000
vt 0.050447 0.383337
vt 0.125000 0.500000
vt 0.580294 0.419706
vt 0.125000 1.000000
vt 0.080294 0.419706
vt 0.093750 0.500000
vt 0.616663 0.449553
vt 0.093750 1.000000
vt 0.116663 0.449553
vt 0.062500 0.500000
vt 0.658156 0.471731
vt 0.158156 0.471731
vt 0.062500 1.000000
vt 0.031250 0.500000
vt 0.703178 0.485388
vt 0.203178 0.485388
vt 0.031250 1.000000
s 0
f 1/1/1 2/4/1 4/9/1 3/7/1
f 3/7/2 4/9/2 6/13/2 5/11/2
f 5/11/3 6/13/3 8/17/3 7/15/3
f 7/15/4 8/17/4 10/21/4 9/19/4
f 9/19/5 10/21/5 12/25/5 11/23/5
f 11/23/6 12/25/6 14/29/6 13/27/6
f 13/27/7 14/29/7 16/33/7 15/31/7
f 15/31/8 16/33/8 18/37/8 17/35/8
f 17/35/9 18/37/9 20/41/9 19/39/9
f 19/39/10 20/41/10 22/45/10 21/43/10
f 21/43/11 22/45/11 24/49/11 23/47/11
f 23/47/12 24/49/12 26/53/12 25/51/12
f 25/51/13 26/53/13 28/57/13 27/55/13
f 27/55/14 28/57/14 30/61/14 29/59/14
f 29/59/15 30/61/15 32/65/15 31/63/15
f 31/63/16 32/65/16 34/69/16 33/67/16
f 33/67/17 34/69/17 36/73/17 35/71/17
f 35/71/18 36/73/18 38/77/18 37/75/18
f 37/75/19 38/77/19 40/81/19 39/79/19
f 39/79/20 40/81/20 42/85/20 41/83/20
f 41/83/21 42/85/21 44/89/21 43/87/21
f 43/87/22 44/89/22 46/93/22 45/91/22
f 45/91/23 46/93/23 48/97/23 47/95/23
f 47/95/24 48/97/24 50/101/24 49/99/24
f 49/99/25 50/101/25 52/105/25 51/103/25
f 51/103/26 52/105/26 54/109/26 53/107/26
f 53/107/27 54/109/27 56/113/27 55/111/27
f 55/111/28 56/113/28 58/117/28 57/115/28
f 57/115/29 58/117/29 60/121/29 59/119/29
f 59/119/30 60/121/30 62/126/30 61/123/30
f 4/10/31 2/5/31 64/129/31 62/125/31 60/122/31 58/118/31 56/114/31 54/110/31 52/106/31 50/102/31 48/98/31 46/94/31 44/90/31 42/86/31 40/82/31 38/78/31 36/74/31 34/70/31 32/66/31 30/62/31 28/58/31 26/54/31 24/50/31 22/46/31 20/42/31 18/38/31 16/34/31 14/30/31 12/26/31 10/22/31 8/18/31 6/14/31
f 61/123/32 62/126/32 64/130/32 63/127/32
f 63/127/33 64/130/33 2/6/33 1/2/33
f 1/3/34 3/8/34 5/12/34 7/16/34 9/20/34 11/24/34 13/28/34 15/32/34 17/36/34 19/40/34 21/44/34 23/48/34 25/52/34 27/56/34 29/60/34 31/64/34 33/68/34 35/72/34 37/76/34 39/80/34 41/84/34 43/88/34 45/92/34 47/96/34 49/100/34 51/104/34 53/108/34 55/112/34 57/116/34 59/120/34 61/124/34 63/128/34
o Circle
v 0.000000 1.987778 -1.122227
v -0.218936 1.987778 -1.100664
v -0.429458 1.987778 -1.036803
v -0.623476 1.987778 -0.933098
v -0.793535 1.987778 -0.793535
v -0.933098 1.987778 -0.623476
v -1.036803 1.987778 -0.429458
v -1.100664 1.987778 -0.218936
v -1.122227 1.987778 0.000000
v -1.100664 1.987778 0.218936
v -1.036803 1.987778 0.429458
v -0.933098 1.987778 0.623476
v -0.793535 1.987778 0.793535
v -0.623476 1.987778 0.933098
v -0.429458 1.987778 1.036803
v -0.218936 1.987778 1.100664
v 0.000000 1.987778 1.122227
v 0.218936 1.987778 1.100664
v 0.429458 1.987778 1.036803
v 0.623476 1.987778 0.933098
v 0.793535 1.987778 0.793535
v 0.933098 1.987778 0.623476
v 1.036803 1.987778 0.429458
v 1.100664 1.987778 0.218936
v 1.122227 1.987778 0.000000
v 1.100664 1.987778 -0.218936
v 1.036803 1.987778 -0.429458
v 0.933098 1.987778 -0.623476
v 0.793535 1.987778 -0.793535
v 0.623476 1.987778 -0.933098
v 0.429458 1.987778 -1.036803
v 0.218936 1.987778 -1.100664
v -0.000000 2.212223 -1.122227
v -0.218936 2.212223 -1.100664
v -0.429458 2.212223 -1.036803
v -0.623476 2.212223 -0.933098
v -0.793535 2.212223 -0.793535
v -0.933098 2.212223 -0.623476
v -1.036803 2.212223 -0.429458
v -1.100664 2.212223 -0.218936
v -1.122227 2.212223 0.000000
v -1.100664 2.212223 0.218936
v -1.036803 2.212223 0.429458
v -0.933098 2.212223 0.623476
v -0.793535 2.212223 0.793535
v -0.623476 2.212223 0.933098
v -0.429458 2.212223 1.036803
v -0.218936 2.212223 1.100664
v -0.000000 2.212223 1.122227
v 0.218936 2.212223 1.100664
v 0.429458 2.212223 1.036803
v 0.623476 2.212223 0.933098
v 0.793535 2.212223 0.793535
v 0.933098 2.212223 0.623476
v 1.036803 2.212223 0.429458
v 1.100664 2.212223 0.218936
v 1.122227 2.212223 0.000000
v 1.100664 2.212223 -0.218936
v 1.036803 2.212223 -0.429458
v 0.933098 2.212223 -0.623476
v 0.793535 2.212223 -0.793535
v 0.623476 2.212223 -0.933098
v 0.429458 2.212223 -1.036803
v 0.218936 2.212223 -1.100664
vn -0.0000 -1.0000 -0.0000
vn -0.0000 1.0000 -0.0000
vn 0.2903 -0.0000 0.9569
vn -0.7730 -0.0000 -0.6344
vn 0.0980 -0.0000 -0.9952
vn 0.4714 -0.0000 0.8819
vn -0.8819 -0.0000 -0.4714
vn 0.6344 -0.0000 0.7730
vn -0.9569 -0.0000 -0.2903
vn 0.7730 -0.0000 0.6344
vn -0.9952 -0.0000 -0.0980
vn 0.8819 -0.0000 0.4714
vn -0.9952 -0.0000 0.0980
vn 0.9569 -0.0000 0.2903
vn -0.9569 -0.0000 0.2903
vn 0.9952 -0.0000 0.0980
vn -0.8819 -0.0000 0.4714
vn 0.9952 -0.0000 -0.0980
vn -0.7730 -0.0000 0.6344
vn 0.9569 -0.0000 -0.2903
vn -0.6344 -0.0000 0.7730
vn 0.8819 -0.0000 -0.4714
vn -0.4714 -0.0000 0.8819
vn -0.0980 -0.0000 -0.9952
vn 0.7730 -0.0000 -0.6344
vn -0.2903 -0.0000 0.9569
vn -0.2903 -0.0000 -0.9569
vn 0.6344 -0.0000 -0.7730
vn -0.0980 -0.0000 0.9952
vn -0.4714 -0.0000 -0.8819
vn 0.4714 -0.0000 -0.8819
vn 0.0980 -0.0000 0.9952
vn -0.6344 -0.0000 -0.7730
vn 0.2903 -0.0000 -0.9569
vt 0.000000 0.000000
vt 0.000000 0.000000
vt 0.000000 0.000000
vt 0.000000 0.000000
vt 0.000000 0.000000
vt 0.000000 0.000000
vt 0.000000 0.000000
vt 0.000000 0.000000
vt 0.000000 0.000000
vt 0.000000 0.000000
vt 0.000000 0.000000
vt 0.000000 0.000000
vt 0.000000 0.000000
vt 0.000000 0.000000
vt 0.000000 0.000000
vt 0.000000 0.000000
vt 0.000000 0.000000
vt 0.000000 0.000000
vt 0.000000 0.000000
vt 0.000000 0.000000
vt 0.000000 0.000000
vt 0.000000 0.000000
vt 0.000000 0.000000
vt 0.000000 0.000000
vt 0.000000 0.000000
vt 0.000000 0.000000
vt 0.000000 0.000000
vt 0.000000 0.000000
vt 0.000000 0.000000
vt 0.000000 0.000000
vt 0.000000 0.000000
vt 0.000000 0.000000
vt 0.000000 0.000000
vt 0.000000 0.000000
vt 0.000000 0.000000
vt 0.000000 0.000000
vt 0.000000 0.000000
vt 0.000000 0.000000
vt 0.000000 0.000000
vt 0.000000 0.000000
vt 0.000000 0.000000
vt 0.000000 0.000000
vt 0.000000 0.000000
vt 0.000000 0.000000
vt 0.000000 0.000000
vt 0.000000 0.000000
vt 0.000000 0.000000
vt 0.000000 0.000000
vt 0.000000 0.000000
vt 0.000000 0.000000
vt 0.000000 0.000000
vt 0.000000 0.000000
vt 0.000000 0.000000
vt 0.000000 0.000000
vt 0.000000 0.000000
vt 0.000000 0.000000
vt 0.000000 0.000000
vt 0.000000 0.000000
vt 0.000000 0.000000
vt 0.000000 0.000000
vt 0.000000 0.000000
vt 0.000000 0.000000
vt 0.000000 0.000000
vt 0.000000 0.000000
s 0
f 66/132/35 65/131/35 96/162/35 95/161/35 94/160/35 93/159/35 92/158/35 91/157/35 90/156/35 89/155/35 88/154/35 87/153/35 86/152/35 85/151/35 84/150/35 83/149/35 82/148/35 81/147/35 80/146/35 79/145/35 78/144/35 77/143/35 76/142/35 75/141/35 74/140/35 73/139/35 72/138/35 71/137/35 70/136/35 69/135/35 68/134/35 67/133/35
f 98/164/36 99/165/36 100/166/36 101/167/36 102/168/36 103/169/36 104/170/36 105/171/36 106/172/36 107/173/36 108/174/36 109/175/36 110/176/36 111/177/36 112/178/36 113/179/36 114/180/36 115/181/36 116/182/36 117/183/36 118/184/36 119/185/36 120/186/36 121/187/36 122/188/36 123/189/36 124/190/36 125/191/36 126/192/36 127/193/36 128/194/36 97/163/36
f 82/148/37 83/149/37 115/181/37 114/180/37
f 69/135/38 70/136/38 102/168/38 101/167/38
f 96/162/39 65/131/39 97/163/39 128/194/39
f 83/149/40 84/150/40 116/182/40 115/181/40
f 70/136/41 71/137/41 103/169/41 102/168/41
f 84/150/42 85/151/42 117/183/42 116/182/42
f 71/137/43 72/138/43 104/170/43 103/169/43
f 85/151/44 86/152/44 118/184/44 117/183/44
f 72/138/45 73/139/45 105/171/45 104/170/45
f 86/152/46 87/153/46 119/185/46 118/184/46
f 73/139/47 74/140/47 106/172/47 105/171/47
f 87/153/48 88/154/48 120/186/48 119/185/48
f 74/140/49 75/141/49 107/173/49 106/172/49
f 88/154/50 89/155/50 121/187/50 120/186/50
f 75/141/51 76/142/51 108/174/51 107/173/51
f 89/155/52 90/156/52 122/188/52 121/187/52
f 76/142/53 77/143/53 109/175/53 108/174/53
f 90/156/54 91/157/54 123/189/54 122/188/54
f 77/143/55 78/144/55 110/176/55 109/175/55
f 91/157/56 92/158/56 124/190/56 123/189/56
f 78/144/57 79/145/57 111/177/57 110/176/57
f 65/131/58 66/132/58 98/164/58 97/163/58
f 92/158/59 93/159/59 125/191/59 124/190/59
f 79/145/60 80/146/60 112/178/60 111/177/60
f 66/132/61 67/133/61 99/165/61 98/164/61
f 93/159/62 94/160/62 126/192/62 125/191/62
f 80/146/63 81/147/63 113/179/63 112/178/63
f 67/133/64 68/134/64 100/166/64 99/165/64
f 94/160/65 95/161/65 127/193/65 126/192/65
f 81/147/66 82/148/66 114/180/66 113/179/66
f 68/134/67 69/135/67 101/167/67 100/166/67
f 95/161/68 96/162/68 128/194/68 127/193/68
o Cube
v -0.150000 2.300000 0.400000
v -0.150000 2.400000 0.400000
v -0.150000 2.300000 -0.400000
v -0.150000 2.400000 -0.400000
v 0.150000 2.300000 0.400000
v 0.150000 2.400000 0.400000
v 0.150000 2.300000 -0.400000
v 0.150000 2.400000 -0.400000
v -0.150000 2.300000 -0.213333
v -0.150000 2.300000 0.213333
v 0.050000 2.300000 -0.400000
v -0.050000 2.300000 -0.400000
v 0.150000 2.300000 0.213333
v 0.150000 2.300000 -0.213333
v -0.050000 2.300000 0.400000
v 0.050000 2.300000 0.400000
v -0.050000 2.300000 -0.213333
v -0.050000 2.300000 0.213333
v 0.050000 2.300000 -0.213333
v 0.050000 2.300000 0.213333
v -0.150000 2.300000 0.400000
v 0.150000 2.300000 0.400000
v -0.150000 2.300000 0.213333
v 0.150000 2.300000 0.213333
v -0.050000 2.300000 0.400000
v 0.050000 2.300000 0.400000
v -0.050000 2.300000 0.213333
v 0.050000 2.300000 0.213333
v -0.150000 2.200000 0.400000
v 0.150000 2.200000 0.400000
v -0.150000 2.200000 0.213333
v 0.150000 2.200000 0.213333
v -0.050000 2.200000 0.400000
v 0.050000 2.200000 0.400000
v -0.050000 2.200000 0.213333
v 0.050000 2.200000 0.213333
v -0.150000 2.200000 -0.400000
v 0.150000 2.200000 -0.400000
v -0.150000 2.200000 -0.213333
v 0.050000 2.200000 -0.400000
v -0.050000 2.200000 -0.400000
v 0.150000 2.200000 -0.213333
v -0.050000 2.200000 -0.213333
v 0.050000 2.200000 -0.213333
vn -1.0000 -0.0000 -0.0000
vn -0.0000 -0.0000 -1.0000
vn 1.0000 -0.0000 -0.0000
vn -0.0000 -0.0000 1.0000
vn -0.0000 1.0000 -0.0000
vn -0.0000 -1.0000 -0.0000
vt 0.375000 0.000000
vt 0.375000 1.000000
vt 0.625000 0.000000
vt 0.625000 1.000000
vt 0.875000 0.750000
vt 0.375000 0.250000
vt 0.625000 0.250000
vt 0.875000 0.500000
vt 0.375000 0.750000
vt 0.625000 0.750000
vt 0.375000 0.500000
vt 0.625000 0.500000
vt 0.375000 0.191667
vt 0.125000 0.558333
vt 0.375000 0.058333
vt 0.125000 0.691667
vt 0.375000 0.416667
vt 0.375000 0.333333
vt 0.375000 0.691667
vt 0.375000 0.558333
vt 0.375000 0.916667
vt 0.375000 0.833333
vt 0.208333 0.558333
vt 0.208333 0.691667
vt 0.291667 0.558333
vt 0.291667 0.691667
vt 0.375000 0.000000
vt 0.375000 1.000000
vt 0.375000 0.750000
vt 0.375000 0.058333
vt 0.125000 0.691667
vt 0.375000 0.691667
vt 0.375000 0.916667
vt 0.375000 0.833333
vt 0.208333 0.691667
vt 0.291667 0.691667
vt 0.375000 0.000000
vt 0.125000 0.750000
vt 0.375000 1.000000
vt 0.375000 0.750000
vt 0.375000 0.058333
vt 0.125000 0.691667
vt 0.375000 0.691667
vt 0.208333 0.750000
vt 0.375000 0.916667
vt 0.291667 0.750000
vt 0.375000 0.833333
vt 0.208333 0.691667
vt 0.291667 0.691667
vt 0.125000 0.500000
vt 0.375000 0.250000
vt 0.375000 0.500000
vt 0.375000 0.191667
vt 0.125000 0.558333
vt 0.291667 0.500000
vt 0.375000 0.416667
vt 0.208333 0.500000
vt 0.375000 0.333333
vt 0.375000 0.558333
vt 0.208333 0.558333
vt 0.291667 0.558333
s 0
f 129/195/69 130/197/69 132/201/69 131/200/69 137/207/69 138/209/69
f 131/200/70 132/201/70 136/206/70 135/205/70 139/211/70 140/212/70
f 135/205/71 136/206/71 134/204/71 133/203/71 141/213/71 142/214/71
f 133/203/72 134/204/72 130/198/72 129/196/72 143/215/72 144/216/72
f 129/195/73 138/209/73 151/224/73 149/221/73
f 136/206/73 132/202/73 130/199/73 134/204/73
f 144/216/73 143/215/73 153/227/73 154/228/73
f 133/203/73 144/216/73 154/228/73 150/223/73
f 142/214/72 147/219/72 172/255/72 170/253/72
f 137/208/74 145/217/74 146/218/74 138/210/74
f 137/207/69 131/200/69 165/245/69 167/247/69
f 145/217/74 147/219/74 148/220/74 146/218/74
f 139/211/70 135/205/70 166/246/70 168/250/70
f 147/219/74 142/214/74 141/213/74 148/220/74
f 149/221/69 151/224/69 159/235/69 157/231/69
f 152/226/71 150/223/71 158/234/71 160/237/71
f 154/228/72 153/227/72 161/239/72 162/241/72
f 148/220/73 141/213/73 152/226/73 156/230/73
f 146/218/73 148/220/73 156/230/73 155/229/73
f 143/215/73 129/196/73 149/222/73 153/227/73
f 138/210/73 146/218/73 155/229/73 151/225/73
f 141/213/73 133/203/73 150/223/73 152/226/73
f 164/243/74 160/237/74 158/234/74 162/240/74
f 159/236/74 163/242/74 161/238/74 157/232/74
f 163/242/74 164/243/74 162/240/74 161/238/74
f 156/230/70 152/226/70 160/237/70 164/243/70
f 151/225/70 155/229/70 163/242/70 159/236/70
f 153/227/72 149/222/72 157/233/72 161/239/72
f 150/223/72 154/228/72 162/241/72 158/234/72
f 155/229/70 156/230/70 164/243/70 163/242/70
f 165/244/74 169/251/74 171/254/74 167/248/74
f 169/251/74 168/249/74 172/255/74 171/254/74
f 168/249/74 166/246/74 170/253/74 172/255/74
f 147/219/72 145/217/72 171/254/72 172/255/72
f 145/217/72 137/208/72 167/248/72 171/254/72
f 140/212/70 139/211/70 168/250/70 169/252/70
f 131/200/70 140/212/70 169/252/70 165/245/70
f 135/205/71 142/214/71 170/253/71 166/246/71
